<svg
  xmlns="http://www.w3.org/2000/svg"
  xmlns:xlink="http://www.w3.org/1999/xlink"
  viewBox="0 0 1000 1000"
  width="1000"
  height="1000"
  preserveAspectRatio="xMidYMid meet"
  style="width: 100%; height: 100%; transform: translate3d(0px, 0px, 0px); content-visibility: visible"
  id="Payment Done"
>
  <defs>
    <clipPath id="__lottie_element_14367"><rect width="1000" height="1000" x="0" y="0" /></clipPath>
    <g id="__lottie_element_14383">
      <g transform="matrix(1,0,0,1,422,513.75)" opacity="1" style="display: block">
        <g opacity="1" transform="matrix(1.1263099908828735,0,0,1.1263099908828735,387,-91.25)">
          <path
            stroke-linecap="butt"
            stroke-linejoin="miter"
            fill-opacity="0"
            stroke-miterlimit="4"
            stroke="rgb(126,132,255)"
            stroke-opacity="1"
            stroke-width="13"
            d=" M0,-33.75 C18.626625061035156,-33.75 33.75,-18.626625061035156 33.75,0 C33.75,18.626625061035156 18.626625061035156,33.75 0,33.75 C-18.626625061035156,33.75 -33.75,18.626625061035156 -33.75,0 C-33.75,-18.299999237060547 -19.152000427246094,-33.21900177001953 -0.9750000238418579,-33.736000061035156"
          />
        </g>
      </g>
    </g>
    <linearGradient
      id="__lottie_element_14389"
      spreadMethod="pad"
      gradientUnits="userSpaceOnUse"
      x1="-329.47100830078125"
      y1="-232.41200256347656"
      x2="-216.26199340820312"
      y2="-160.2209930419922"
    >
      <stop offset="0%" stop-color="rgb(126,132,255)" stop-opacity="1" />
      <stop offset="50%" stop-color="rgb(126,173,239)" stop-opacity="0.5" />
      <stop offset="100%" stop-color="rgb(126,214,223)" stop-opacity="0" />
    </linearGradient>
    <g id="__lottie_element_14390">
      <g
        transform="matrix(1.2122900485992432,0,0,1.2122900485992432,546.42578125,536.293212890625)"
        opacity="1"
        style="display: block"
      >
        <g opacity="1" transform="matrix(1,0,0,1,-257.75,-186.75)">
          <path
            stroke-linecap="butt"
            stroke-linejoin="miter"
            fill-opacity="0"
            stroke-miterlimit="4"
            stroke="rgb(126,132,255)"
            stroke-opacity="1"
            stroke-width="12"
            d=" M0,-65.25 C36.011474609375,-65.25 65.25,-36.011474609375 65.25,0 C65.25,36.011474609375 36.011474609375,65.25 0,65.25 C-36.011474609375,65.25 -65.25,36.011474609375 -65.25,0 C-65.25,-36.011474609375 -36.011474609375,-65.25 0,-65.25z"
          />
        </g>
      </g>
    </g>
    <linearGradient
      id="__lottie_element_14396"
      spreadMethod="pad"
      gradientUnits="userSpaceOnUse"
      x1="-2888.5439453125"
      y1="-820.7860107421875"
      x2="-2936.751953125"
      y2="-946.0999755859375"
    >
      <stop offset="0%" stop-color="rgb(126,132,255)" stop-opacity="1" />
      <stop offset="50%" stop-color="rgb(126,173,239)" stop-opacity="0.5" />
      <stop offset="100%" stop-color="rgb(126,214,223)" stop-opacity="0" />
    </linearGradient>
    <g id="__lottie_element_14397">
      <g style="display: block" transform="matrix(1,0,0,1,499.5,498.5)" opacity="1">
        <g opacity="1" transform="matrix(1.1373100280761719,0,0,1.1373100280761719,74.75,335.25)">
          <path
            stroke-linecap="butt"
            stroke-linejoin="miter"
            fill-opacity="0"
            stroke-miterlimit="4"
            stroke="rgb(126,132,255)"
            stroke-opacity="1"
            stroke-width="12"
            d=" M0,-67.75 C37.3912239074707,-67.75 67.75,-37.3912239074707 67.75,0 C67.75,37.3912239074707 37.3912239074707,67.75 0,67.75 C-37.3912239074707,67.75 -67.75,37.3912239074707 -67.75,0 C-67.75,-37.3912239074707 -37.3912239074707,-67.75 0,-67.75z"
          />
        </g>
      </g>
    </g>
    <g id="__lottie_element_14409">
      <g
        transform="matrix(0.9214479923248291,0.26511046290397644,-0.26511046290397644,0.9214479923248291,465.7518005371094,504.42474365234375)"
        opacity="1"
        style="display: block"
      >
        <g opacity="1" transform="matrix(1,0,0,1,0,0)">
          <path
            stroke-linecap="round"
            stroke-linejoin="miter"
            fill-opacity="0"
            stroke-miterlimit="4"
            stroke="rgb(10,9,9)"
            stroke-opacity="1"
            stroke-width="23"
            d="M0 0"
          />
        </g>
      </g>
    </g>
    <mask id="__lottie_element_14409_1" mask-type="alpha">
      <use xmlns:ns1="http://www.w3.org/1999/xlink" ns1:href="#__lottie_element_14409" />
    </mask>
    <mask id="__lottie_element_14397_1" mask-type="alpha">
      <use xmlns:ns2="http://www.w3.org/1999/xlink" ns2:href="#__lottie_element_14397" />
    </mask>
    <mask id="__lottie_element_14390_1" mask-type="alpha">
      <use xmlns:ns3="http://www.w3.org/1999/xlink" ns3:href="#__lottie_element_14390" />
    </mask>
    <mask id="__lottie_element_14383_1" mask-type="alpha">
      <use xmlns:ns4="http://www.w3.org/1999/xlink" ns4:href="#__lottie_element_14383" />
    </mask>
  </defs>
  <g clip-path="url(#__lottie_element_14367)">
    <g transform="matrix(1,0,0,1,500,500)" opacity="1" style="display: block">
      <g opacity="1" transform="matrix(1,0,0,1,0,0)">
        <path
          fill="rgb(209,214,255)"
          fill-opacity="1"
          d=" M375.01800537109375,23.56599998474121 C375.01800537109375,242.4010009765625 197.61700439453125,419.8030090332031 -21.218000411987305,419.8030090332031 C-240.0540008544922,419.8030090332031 -417.45599365234375,242.4010009765625 -417.45599365234375,23.56599998474121 C-417.45599365234375,-195.27000427246094 -240.0540008544922,-372.6709899902344 -21.218000411987305,-372.6709899902344 C197.61700439453125,-372.6709899902344 375.01800537109375,-195.27000427246094 375.01800537109375,23.56599998474121z"
        />
      </g>
    </g>
    <g transform="matrix(1,0,0,1,787.9509887695312,540.1640014648438)" opacity="1" style="display: block">
      <g opacity="1" transform="matrix(1,0,0,1,0,0)">
        <path
          fill="rgb(243,244,251)"
          fill-opacity="1"
          d=" M64.75700378417969,2.98799991607666 C58.22100067138672,-3.5480000972747803 48.70800018310547,-5.263000011444092 40.5890007019043,-2.197000026702881 C40.50600051879883,-7.915999889373779 38.29499816894531,-13.609999656677246 33.93199920654297,-17.972999572753906 C25.034000396728516,-26.871000289916992 10.609000205993652,-26.871000289916992 1.7120000123977661,-17.972999572753906 C-4.10099983215332,-12.16100025177002 -6.090000152587891,-3.99399995803833 -4.308000087738037,3.4549999237060547 C-5.0370001792907715,2.430000066757202 -5.8379998207092285,1.440999984741211 -6.756999969482422,0.5220000147819519 C-15.654999732971191,-8.375 -30.079999923706055,-8.375 -38.97700119018555,0.5220000147819519 C-42.94599914550781,4.491000175476074 -45.132999420166016,9.560999870300293 -45.56100082397461,14.74899959564209 C-48.119998931884766,11.04699993133545 -52.38800048828125,8.618000030517578 -57.22800064086914,8.618000030517578 C-65.05999755859375,8.618000030517578 -71.40799713134766,14.96500015258789 -71.40799713134766,22.797000885009766 C-71.40799713134766,23.424999237060547 -71.36199951171875,24.041000366210938 -71.28299713134766,24.645999908447266 C-71.28299713134766,24.645999908447266 70.72000122070312,24.645999908447266 70.72000122070312,24.645999908447266 C72.5999984741211,17.13599967956543 70.62999725341797,8.861000061035156 64.75700378417969,2.98799991607666z"
        />
      </g>
    </g>
    <g transform="matrix(1,0,0,1,670.447021484375,243.99899291992188)" opacity="1" style="display: block">
      <g opacity="1" transform="matrix(1,0,0,1,0,0)">
        <path
          fill="rgb(243,244,251)"
          fill-opacity="1"
          d=" M167.21299743652344,7.715000152587891 C150.33700561523438,-9.16100025177002 125.77200317382812,-13.590999603271484 104.80699920654297,-5.673999786376953 C104.59100341796875,-20.44099998474121 98.88500213623047,-35.141998291015625 87.61699676513672,-46.40999984741211 C64.64299774169922,-69.38400268554688 27.393999099731445,-69.38400268554688 4.419000148773193,-46.40999984741211 C-10.59000015258789,-31.400999069213867 -15.72700023651123,-10.312000274658203 -11.125,8.92199993133545 C-13.008000373840332,6.276000022888184 -15.074000358581543,3.7200000286102295 -17.44700050354004,1.347000002861023 C-40.422000885009766,-21.628000259399414 -77.6709976196289,-21.628000259399414 -100.6449966430664,1.347000002861023 C-110.89399719238281,11.595999717712402 -116.53900146484375,24.68899917602539 -117.64399719238281,38.084999084472656 C-124.25,28.524999618530273 -135.2729949951172,22.250999450683594 -147.7729949951172,22.250999450683594 C-167.99400329589844,22.250999450683594 -184.38699340820312,38.64400100708008 -184.38699340820312,58.8650016784668 C-184.38699340820312,60.48500061035156 -184.26800537109375,62.07699966430664 -184.06300354003906,63.64099884033203 C-184.06300354003906,63.64099884033203 182.61199951171875,63.64099884033203 182.61199951171875,63.64099884033203 C187.46600341796875,44.249000549316406 182.3769989013672,22.878999710083008 167.21299743652344,7.715000152587891z"
        />
      </g>
    </g>
    <g transform="matrix(1,0,0,1,305.6390075683594,358.17401123046875)" opacity="1" style="display: block">
      <g opacity="1" transform="matrix(1,0,0,1,0,0)">
        <path
          fill="rgb(243,244,251)"
          fill-opacity="1"
          d=" M71.20899963378906,3.2860000133514404 C64.02200317382812,-3.9010000228881836 53.56100082397461,-5.788000106811523 44.632999420166016,-2.4170000553131104 C44.54100036621094,-8.704999923706055 42.111000061035156,-14.96500015258789 37.3129997253418,-19.763999938964844 C27.52899932861328,-29.54800033569336 11.666000366210938,-29.54800033569336 1.8819999694824219,-19.763999938964844 C-4.510000228881836,-13.371999740600586 -6.697000026702881,-4.390999794006348 -4.73799991607666,3.799999952316284 C-5.539999961853027,2.6730000972747803 -6.420000076293945,1.5850000381469727 -7.429999828338623,0.5740000009536743 C-17.214000701904297,-9.210000038146973 -33.07699966430664,-9.210000038146973 -42.861000061035156,0.5740000009536743 C-47.22600173950195,4.939000129699707 -49.62900161743164,10.513999938964844 -50.099998474121094,16.2189998626709 C-52.91299819946289,12.14799976348877 -57.608001708984375,9.47599983215332 -62.930999755859375,9.47599983215332 C-71.54199981689453,9.47599983215332 -78.52300262451172,16.457000732421875 -78.52300262451172,25.06800079345703 C-78.52300262451172,25.757999420166016 -78.47200012207031,26.43600082397461 -78.38500213623047,27.101999282836914 C-78.38500213623047,27.101999282836914 77.76699829101562,27.101999282836914 77.76699829101562,27.101999282836914 C79.83399963378906,18.8439998626709 77.66699981689453,9.744000434875488 71.20899963378906,3.2860000133514404z"
        />
      </g>
    </g>
    <g mask="url(#__lottie_element_14383_1)" style="display: block">
      <g transform="matrix(1,0,0,1,417.9999694824219,512)" opacity="1">
        <g opacity="1" transform="matrix(1,0,0,1,0,0)">
          <path
            fill="rgb(245,87,37)"
            fill-opacity="1"
            d=" M390.5610046386719,-46.02399826049805 C366.5050048828125,-46.02399826049805 346.9330139160156,-65.59600067138672 346.9330139160156,-89.6520004272461 C346.9330139160156,-113.70800018310547 366.5050048828125,-133.27999877929688 390.5610046386719,-133.27999877929688 C414.61700439453125,-133.27999877929688 434.1889953613281,-113.70800018310547 434.1889953613281,-89.6520004272461 C434.1889953613281,-65.59600067138672 414.61700439453125,-46.02399826049805 390.5610046386719,-46.02399826049805z M390.5610046386719,-120.08499908447266 C373.781005859375,-120.08499908447266 360.12799072265625,-106.43199920654297 360.12799072265625,-89.6520004272461 C360.12799072265625,-72.87200164794922 373.781005859375,-59.21900177001953 390.5610046386719,-59.21900177001953 C407.34100341796875,-59.21900177001953 420.9939880371094,-72.87200164794922 420.9939880371094,-89.6520004272461 C420.9939880371094,-106.43199920654297 407.34100341796875,-120.08499908447266 390.5610046386719,-120.08499908447266z"
          />
        </g>
      </g>
    </g>
    <g mask="url(#__lottie_element_14390_1)" style="display: block">
      <g transform="matrix(1,0,0,1,500,500)" opacity="1">
        <g opacity="1" transform="matrix(1,0,0,1,0,0)">
          <path
            fill="url(#__lottie_element_14389)"
            fill-opacity="1"
            d=" M-266.5799865722656,-106.6520004272461 C-313.2130126953125,-106.6520004272461 -351.1520080566406,-144.59100341796875 -351.1520080566406,-191.2239990234375 C-351.1520080566406,-237.8560028076172 -313.2130126953125,-275.7929992675781 -266.5799865722656,-275.7929992675781 C-219.94700622558594,-275.7929992675781 -182.00799560546875,-237.8560028076172 -182.00799560546875,-191.2239990234375 C-182.00799560546875,-144.59100341796875 -219.94700622558594,-106.6520004272461 -266.5799865722656,-106.6520004272461z M-266.5799865722656,-262.5979919433594 C-305.93701171875,-262.5979919433594 -337.95599365234375,-230.5800018310547 -337.95599365234375,-191.2239990234375 C-337.95599365234375,-151.86700439453125 -305.93701171875,-119.8479995727539 -266.5799865722656,-119.8479995727539 C-227.22300720214844,-119.8479995727539 -195.20399475097656,-151.86700439453125 -195.20399475097656,-191.2239990234375 C-195.20399475097656,-230.5800018310547 -227.22300720214844,-262.5979919433594 -266.5799865722656,-262.5979919433594z"
          />
        </g>
      </g>
    </g>
    <g mask="url(#__lottie_element_14397_1)" style="display: block">
      <g transform="matrix(1,0,0,1,500,500)" opacity="1">
        <g opacity="1" transform="matrix(1,0,0,1,0,0)">
          <path
            fill="url(#__lottie_element_14396)"
            fill-opacity="1"
            d=" M125.00599670410156,265.61700439453125 C162.5240020751953,293.31201171875 170.51800537109375,346.36700439453125 142.822998046875,383.885009765625 C115.12899780273438,421.40301513671875 62.07400131225586,429.3940124511719 24.555999755859375,401.6990051269531 C-12.961999893188477,374.0039978027344 -20.95599937438965,320.95098876953125 6.73799991607666,283.4330139160156 C34.43299865722656,245.9149932861328 87.48799896240234,237.9219970703125 125.00599670410156,265.61700439453125z M32.391998291015625,391.0830078125 C64.05599975585938,414.45599365234375 108.83300018310547,407.7130126953125 132.20599365234375,376.04901123046875 C155.57899475097656,344.385009765625 148.83399963378906,299.60699462890625 117.16999816894531,276.2340087890625 C85.50599670410156,252.86099243164062 40.72800064086914,259.6059875488281 17.354999542236328,291.2699890136719 C-6.01800012588501,322.9339904785156 0.7279999852180481,367.7099914550781 32.391998291015625,391.0830078125z"
          />
        </g>
      </g>
    </g>
    <g
      transform="matrix(0.9990484714508057,0.04361424595117569,-0.04361424595117569,0.9990484714508057,514.9529418945312,506.3042297363281)"
      opacity="1"
      style="display: block"
    >
      <g opacity="1" transform="matrix(1,0,0,1,0,0)">
        <path
          fill="rgb(33,44,104)"
          fill-opacity="1"
          d=" M148.1580047607422,5.51200008392334 C148.1580047607422,5.51200008392334 148.1580047607422,47.40700149536133 148.1580047607422,47.40700149536133 C148.1580047607422,47.40700149536133 -113.6719970703125,47.40700149536133 -113.6719970703125,47.40700149536133 C-125.24299621582031,47.40700149536133 -134.66000366210938,38.029998779296875 -134.66000366210938,26.499000549316406 C-134.66000366210938,26.020999908447266 -134.66000366210938,25.50200080871582 -134.5800018310547,25.023000717163086 C-133.86099243164062,14.130000114440918 -124.76399993896484,5.51200008392334 -113.6719970703125,5.51200008392334 C-113.6719970703125,5.51200008392334 148.1580047607422,5.51200008392334 148.1580047607422,5.51200008392334z"
        />
      </g>
      <g opacity="1" transform="matrix(1,0,0,1,0,0)">
        <path
          fill="rgb(133,145,252)"
          fill-opacity="1"
          d=" M165.11599731445312,92.48200225830078 C165.11599731445312,92.48200225830078 -110.53299713134766,92.48200225830078 -110.53299713134766,92.48200225830078 C-110.53299713134766,92.48200225830078 -110.53299713134766,19.663000106811523 -110.53299713134766,19.663000106811523 C-110.53299713134766,19.663000106811523 165.11599731445312,19.663000106811523 165.11599731445312,19.663000106811523 C165.11599731445312,19.663000106811523 165.11599731445312,92.48200225830078 165.11599731445312,92.48200225830078z"
        />
      </g>
      <g opacity="1" transform="matrix(1,0,0,1,0,-18.699321746826172)">
        <g opacity="1" transform="matrix(1,0,0,1,2,0)">
          <path
            fill="rgb(126,132,255)"
            fill-opacity="1"
            d=" M102.66500091552734,-109.58999633789062 C102.66500091552734,-109.58999633789062 238.1840057373047,-87.4020004272461 238.1840057373047,-87.4020004272461 C252.20799255371094,-85.10600280761719 261.864990234375,-72.90499877929688 259.77801513671875,-60.15800094604492 C259.77801513671875,-60.15800094604492 218.28399658203125,193.28399658203125 218.28399658203125,193.28399658203125 C216.19700622558594,206.031005859375 203.1529998779297,214.51499938964844 189.12899780273438,212.218994140625 C189.12899780273438,212.218994140625 53.61000061035156,190.031005859375 53.61000061035156,190.031005859375 C39.61899948120117,187.74099731445312 29.961999893188477,175.5399932861328 32.04899978637695,162.79299926757812 C32.04899978637695,162.79299926757812 73.54299926757812,-90.64900207519531 73.54299926757812,-90.64900207519531 C75.62999725341797,-103.39600372314453 88.67400360107422,-111.88099670410156 102.66500091552734,-109.58999633789062z"
          />
        </g>
        <g opacity="1" transform="matrix(1,0,0,1,0,0)">
          <path
            fill="rgb(33,44,104)"
            fill-opacity="1"
            d=" M103.29199981689453,-109.48699951171875 C103.29199981689453,-109.48699951171875 126.95099639892578,-105.61299896240234 126.95099639892578,-105.61299896240234 C126.95099639892578,-105.61299896240234 77.89600372314453,194.00799560546875 77.89600372314453,194.00799560546875 C77.89600372314453,194.00799560546875 54.23699951171875,190.13400268554688 54.23699951171875,190.13400268554688 C54.23699951171875,190.13400268554688 103.29199981689453,-109.48699951171875 103.29199981689453,-109.48699951171875z"
          />
        </g>
        <g opacity="1" transform="matrix(1,0,0,1,0,0)">
          <g opacity="1" transform="matrix(1,0,0,1,0,0)">
            <path
              fill="rgb(255,255,255)"
              fill-opacity="1"
              d=" M102.6780014038086,149.49400329589844 C102.6780014038086,149.49400329589844 97.53500366210938,180.91000366210938 97.53500366210938,180.91000366210938 C97.53500366210938,180.91000366210938 89.83499908447266,179.6490020751953 89.83499908447266,179.6490020751953 C89.83499908447266,179.6490020751953 94.97899627685547,148.23399353027344 94.97899627685547,148.23399353027344 C94.97899627685547,148.23399353027344 102.6780014038086,149.49400329589844 102.6780014038086,149.49400329589844z"
            />
          </g>
          <g opacity="1" transform="matrix(1,0,0,1,0,0)">
            <path
              fill="rgb(255,255,255)"
              fill-opacity="1"
              d=" M110.41999816894531,102.20800018310547 C110.41999816894531,102.20800018310547 105.2770004272461,133.62399291992188 105.2770004272461,133.62399291992188 C105.2770004272461,133.62399291992188 97.5770034790039,132.36300659179688 97.5770034790039,132.36300659179688 C97.5770034790039,132.36300659179688 102.72100067138672,100.9469985961914 102.72100067138672,100.9469985961914 C102.72100067138672,100.9469985961914 110.41999816894531,102.20800018310547 110.41999816894531,102.20800018310547z"
            />
          </g>
          <g opacity="1" transform="matrix(1,0,0,1,0,0)">
            <path
              fill="rgb(255,255,255)"
              fill-opacity="1"
              d=" M118.16200256347656,54.922000885009766 C118.16200256347656,54.922000885009766 113.01899719238281,86.33699798583984 113.01899719238281,86.33699798583984 C113.01899719238281,86.33699798583984 105.31900024414062,85.0770034790039 105.31900024414062,85.0770034790039 C105.31900024414062,85.0770034790039 110.46199798583984,53.6609992980957 110.46199798583984,53.6609992980957 C110.46199798583984,53.6609992980957 118.16200256347656,54.922000885009766 118.16200256347656,54.922000885009766z"
            />
          </g>
          <g opacity="1" transform="matrix(1,0,0,1,0,0)">
            <path
              fill="rgb(255,255,255)"
              fill-opacity="1"
              d=" M125.90399932861328,7.635000228881836 C125.90399932861328,7.635000228881836 120.76000213623047,39.05099868774414 120.76000213623047,39.05099868774414 C120.76000213623047,39.05099868774414 113.06099700927734,37.79100036621094 113.06099700927734,37.79100036621094 C113.06099700927734,37.79100036621094 118.2040023803711,6.375 118.2040023803711,6.375 C118.2040023803711,6.375 125.90399932861328,7.635000228881836 125.90399932861328,7.635000228881836z"
            />
          </g>
          <g opacity="1" transform="matrix(1,0,0,1,0,0)">
            <path
              fill="rgb(255,255,255)"
              fill-opacity="1"
              d=" M133.64500427246094,-39.6510009765625 C133.64500427246094,-39.6510009765625 128.5019989013672,-8.234999656677246 128.5019989013672,-8.234999656677246 C128.5019989013672,-8.234999656677246 120.8030014038086,-9.496000289916992 120.8030014038086,-9.496000289916992 C120.8030014038086,-9.496000289916992 125.94599914550781,-40.9109992980957 125.94599914550781,-40.9109992980957 C125.94599914550781,-40.9109992980957 133.64500427246094,-39.6510009765625 133.64500427246094,-39.6510009765625z"
            />
          </g>
          <g opacity="1" transform="matrix(1,0,0,1,0,0)">
            <path
              fill="rgb(255,255,255)"
              fill-opacity="1"
              d=" M141.38699340820312,-86.93699645996094 C141.38699340820312,-86.93699645996094 136.24400329589844,-55.520999908447266 136.24400329589844,-55.520999908447266 C136.24400329589844,-55.520999908447266 128.54400634765625,-56.78200149536133 128.54400634765625,-56.78200149536133 C128.54400634765625,-56.78200149536133 133.68800354003906,-88.197998046875 133.68800354003906,-88.197998046875 C133.68800354003906,-88.197998046875 141.38699340820312,-86.93699645996094 141.38699340820312,-86.93699645996094z"
            />
          </g>
        </g>
        <g opacity="1" transform="matrix(1,0,0,1,0,0)">
          <path
            fill="rgb(255,255,255)"
            fill-opacity="1"
            d=" M231.43800354003906,-67.4229965209961 C231.43800354003906,-67.4229965209961 221.88499450683594,-9.074999809265137 221.88499450683594,-9.074999809265137 C221.88499450683594,-9.074999809265137 182.28900146484375,-15.557999610900879 182.28900146484375,-15.557999610900879 C182.28900146484375,-15.557999610900879 191.84100341796875,-73.90499877929688 191.84100341796875,-73.90499877929688 C191.84100341796875,-73.90499877929688 231.43800354003906,-67.4229965209961 231.43800354003906,-67.4229965209961z"
          />
        </g>
      </g>
      <g opacity="1" transform="matrix(1,0,0,1,0,0)">
        <path
          fill="rgb(174,196,247)"
          fill-opacity="1"
          d=" M185.56500244140625,106.11499786376953 C185.56500244140625,106.11499786376953 -96.56800079345703,106.11499786376953 -96.56800079345703,106.11499786376953 C-96.56800079345703,106.11499786376953 -96.56800079345703,33.29600143432617 -96.56800079345703,33.29600143432617 C-96.56800079345703,33.29600143432617 185.56500244140625,33.29600143432617 185.56500244140625,33.29600143432617 C185.56500244140625,33.29600143432617 185.56500244140625,106.11499786376953 185.56500244140625,106.11499786376953z"
        />
      </g>
      <g opacity="1" transform="matrix(1,0,0,1,0,0)">
        <path
          fill="rgb(22,35,89)"
          fill-opacity="1"
          d=" M-89.25299835205078,47.40700149536133 C-89.25299835205078,47.40700149536133 -77.9469985961914,18.33300018310547 -112.19499969482422,18.33300018310547 C-112.19499969482422,18.33300018310547 -112.19499969482422,74.85900115966797 -112.19499969482422,74.85900115966797 C-112.19499969482422,74.85900115966797 -90.25,74.85900115966797 -90.25,74.85900115966797 C-90.25,74.85900115966797 -89.25299835205078,47.40700149536133 -89.25299835205078,47.40700149536133z"
        />
      </g>
      <g opacity="1" transform="matrix(1,0,0,1,0,0)">
        <path
          fill="rgb(60,67,130)"
          fill-opacity="1"
          d=" M205.53599548339844,47.40700149536133 C205.53599548339844,47.40700149536133 205.53599548339844,308.7590026855469 205.53599548339844,308.7590026855469 C205.53599548339844,308.7590026855469 -113.6719970703125,308.7590026855469 -113.6719970703125,308.7590026855469 C-125.24299621582031,308.7590026855469 -134.66000366210938,299.3819885253906 -134.66000366210938,287.85101318359375 C-134.66000366210938,287.85101318359375 -134.66000366210938,26.499000549316406 -134.66000366210938,26.499000549316406 C-134.66000366210938,38.029998779296875 -125.24299621582031,47.40700149536133 -113.6719970703125,47.40700149536133 C-113.6719970703125,47.40700149536133 205.53599548339844,47.40700149536133 205.53599548339844,47.40700149536133z"
        />
      </g>
      <g opacity="1" transform="matrix(1,0,0,1,0,0)">
        <path
          fill="rgb(51,66,130)"
          fill-opacity="1"
          d=" M205.53599548339844,47.40700149536133 C205.53599548339844,47.40700149536133 205.53599548339844,308.7590026855469 205.53599548339844,308.7590026855469 C205.53599548339844,308.7590026855469 -113.6719970703125,308.7590026855469 -113.6719970703125,308.7590026855469 C-125.24299621582031,308.7590026855469 -134.66000366210938,299.3819885253906 -134.66000366210938,287.85101318359375 C-134.66000366210938,287.85101318359375 -134.66000366210938,26.499000549316406 -134.66000366210938,26.499000549316406 C-134.66000366210938,38.029998779296875 -125.24299621582031,47.40700149536133 -113.6719970703125,47.40700149536133 C-113.6719970703125,47.40700149536133 205.53599548339844,47.40700149536133 205.53599548339844,47.40700149536133z"
        />
      </g>
    </g>
    <g
      transform="matrix(1,-0.00003622251460910775,0.00003622251460910775,1,500.0046081542969,500.0096435546875)"
      opacity="1"
      style="display: block"
    >
      <g opacity="1" transform="matrix(1,0,0,1,0,0)">
        <path
          fill="rgb(126,132,255)"
          fill-opacity="1"
          d=" M181.61000061035156,-441.5150146484375 C181.61000061035156,-441.5150146484375 62.70100021362305,-322.3609924316406 62.70100021362305,-322.3609924316406 C62.70100021362305,-322.3609924316406 271.6520080566406,-113.83999633789062 271.6520080566406,-113.83999633789062 C271.6520080566406,-113.83999633789062 390.5610046386719,-232.9949951171875 390.5610046386719,-232.9949951171875 C390.5610046386719,-232.9949951171875 181.61000061035156,-441.5150146484375 181.61000061035156,-441.5150146484375z"
        />
      </g>
      <g opacity="1" transform="matrix(1,0,0,1,0,0)">
        <path
          fill="rgb(255,255,255)"
          fill-opacity="1"
          d=" M369.5140075683594,-224.22999572753906 C369.5140075683594,-224.22999572753906 280.37298583984375,-134.90499877929688 280.37298583984375,-134.90499877929688 C274.7879943847656,-137.23899841308594 268.4679870605469,-137.23300170898438 262.88800048828125,-134.88800048828125 C262.88800048828125,-134.88800048828125 83.76699829101562,-313.6400146484375 83.76699829101562,-313.6400146484375 C86.10099792480469,-319.2250061035156 86.09300231933594,-325.5450134277344 83.74800109863281,-331.125 C83.74800109863281,-331.125 172.88900756835938,-420.45001220703125 172.88900756835938,-420.45001220703125 C178.4739990234375,-418.1159973144531 184.79400634765625,-418.12298583984375 190.37399291992188,-420.4679870605469 C190.37399291992188,-420.4679870605469 369.4960021972656,-241.71600341796875 369.4960021972656,-241.71600341796875 C367.1619873046875,-236.13099670410156 367.16900634765625,-229.80999755859375 369.5140075683594,-224.22999572753906z"
        />
      </g>
      <g opacity="1" transform="matrix(1,0,0,1,0,0)">
        <path
          fill="rgb(126,132,255)"
          fill-opacity="1"
          d=" M272.22100830078125,-232.1820068359375 C247.093994140625,-207.0030059814453 206.31399536132812,-206.96099853515625 181.13499450683594,-232.08799743652344 C155.95700073242188,-257.2149963378906 155.91400146484375,-297.9949951171875 181.04100036621094,-323.17401123046875 C206.16799926757812,-348.35198974609375 246.947998046875,-348.3949890136719 272.12701416015625,-323.26800537109375 C297.30499267578125,-298.1409912109375 297.3479919433594,-257.3609924316406 272.22100830078125,-232.1820068359375z"
        />
      </g>
      <g opacity="1" transform="matrix(1,0,0,1,0,0)">
        <path
          fill="rgb(255,255,255)"
          fill-opacity="1"
          d=" M239.9739990234375,-258.3500061035156 C240.1840057373047,-261.7099914550781 239.6199951171875,-264.9360046386719 238.2729949951172,-268.0360107421875 C237.10800170898438,-270.7139892578125 235.45799255371094,-273.8330078125 233.31399536132812,-277.38299560546875 C232.9810028076172,-277.9419860839844 232.63099670410156,-278.51800537109375 232.2729949951172,-279.10198974609375 C230.59800720214844,-281.8919982910156 229.2729949951172,-284.2030029296875 228.3209991455078,-286.0570068359375 C228.19400024414062,-286.31298828125 228.0749969482422,-286.5610046386719 227.95599365234375,-286.7929992675781 C226.97999572753906,-288.7510070800781 226.44400024414062,-290.6369934082031 226.33799743652344,-292.4410095214844 C226.23199462890625,-294.2449951171875 226.843994140625,-295.8070068359375 228.18800354003906,-297.1440124511719 C230.1020050048828,-299.0450134277344 232.48199462890625,-299.739990234375 235.30599975585938,-299.22100830078125 C236.7100067138672,-298.96099853515625 238.17599487304688,-298.3500061035156 239.71400451660156,-297.3789978027344 C241.28399658203125,-296.3919982910156 242.93099975585938,-295.02301025390625 244.65699768066406,-293.2860107421875 C245.4199981689453,-292.5169982910156 246.1529998779297,-291.70001220703125 246.8520050048828,-290.83599853515625 C248.05299377441406,-289.3240051269531 249.1719970703125,-287.6679992675781 250.18099975585938,-285.8529968261719 C251.7760009765625,-282.9989929199219 252.98699951171875,-279.9540100097656 253.822998046875,-276.6960144042969 C253.822998046875,-276.6960144042969 263.3169860839844,-280.6719970703125 263.3169860839844,-280.6719970703125 C262.6579895019531,-284.010009765625 261.3030090332031,-287.42401123046875 259.2799987792969,-290.9010009765625 C257.77099609375,-293.4599914550781 256.06298828125,-295.85101318359375 254.13800048828125,-298.07501220703125 C254.13800048828125,-298.07501220703125 261.05499267578125,-304.95001220703125 261.05499267578125,-304.95001220703125 C261.05499267578125,-304.95001220703125 254.23699951171875,-311.81201171875 254.23699951171875,-311.81201171875 C254.23699951171875,-311.81201171875 247.08700561523438,-304.70599365234375 247.08700561523438,-304.70599365234375 C244.63499450683594,-306.58099365234375 242.18099975585938,-307.9949951171875 239.73399353027344,-308.9519958496094 C235.66900634765625,-310.5450134277344 231.87899780273438,-310.9960021972656 228.35699462890625,-310.2969970703125 C224.84300231933594,-309.5899963378906 221.78900146484375,-307.9540100097656 219.19500732421875,-305.3760070800781 C216.1199951171875,-302.3219909667969 214.45899963378906,-299.0950012207031 214.22500610351562,-295.71099853515625 C213.9980010986328,-292.33599853515625 214.55499267578125,-289.1180114746094 215.90199279785156,-286.06500244140625 C216.9239959716797,-283.739013671875 218.33700561523438,-281.0360107421875 220.14700317382812,-277.9339904785156 C220.71099853515625,-276.95098876953125 221.3209991455078,-275.91900634765625 221.97300720214844,-274.8630065917969 C223.25900268554688,-272.7359924316406 224.32200622558594,-270.8810119628906 225.1719970703125,-269.2909851074219 C225.60000610351562,-268.52398681640625 225.97300720214844,-267.81201171875 226.29100036621094,-267.1730041503906 C227.25799560546875,-265.20599365234375 227.78700256347656,-263.3139953613281 227.8769989013672,-261.4930114746094 C227.95899963378906,-259.6650085449219 227.33099365234375,-258.08599853515625 225.99400329589844,-256.75799560546875 C224.16099548339844,-254.93600463867188 221.8280029296875,-254.33700561523438 219.01300048828125,-254.94400024414062 C217.2899932861328,-255.31700134277344 215.4340057373047,-256.2250061035156 213.47500610351562,-257.6669921875 C212.22500610351562,-258.5899963378906 210.9199981689453,-259.72698974609375 209.5749969482422,-261.0799865722656 C208.51699829101562,-262.1449890136719 207.52999877929688,-263.281005859375 206.60800170898438,-264.4809875488281 C205.09800720214844,-266.45001220703125 203.78900146484375,-268.6000061035156 202.66299438476562,-270.9179992675781 C200.85499572753906,-274.6579895019531 199.75599670410156,-278.2460021972656 199.36700439453125,-281.67999267578125 C199.36700439453125,-281.67999267578125 189.61099243164062,-277.96600341796875 189.61099243164062,-277.96600341796875 C189.86300659179688,-274.3190002441406 191.15199279785156,-270.29901123046875 193.46800231933594,-265.90301513671875 C195.10299682617188,-262.8169860839844 197.0489959716797,-259.9289855957031 199.31500244140625,-257.2330017089844 C199.31500244140625,-257.2330017089844 192.3260040283203,-250.28700256347656 192.3260040283203,-250.28700256347656 C192.3260040283203,-250.28700256347656 199.1439971923828,-243.42599487304688 199.1439971923828,-243.42599487304688 C199.1439971923828,-243.42599487304688 206.18099975585938,-250.41900634765625 206.18099975585938,-250.41900634765625 C208.9759979248047,-248.11900329589844 211.79600524902344,-246.41900634765625 214.6020050048828,-245.3090057373047 C218.6909942626953,-243.6909942626953 222.47999572753906,-243.22500610351562 225.98599243164062,-243.9080047607422 C229.48399353027344,-244.58299255371094 232.51300048828125,-246.21099853515625 235.10800170898438,-248.78799438476562 C238.14100646972656,-251.8040008544922 239.76499938964844,-254.99099731445312 239.9739990234375,-258.3500061035156z"
        />
      </g>
    </g>
    <g
      transform="matrix(0.999965488910675,0.008310860022902489,-0.008310860022902489,0.999965488910675,501.363037109375,501.89697265625)"
      opacity="1"
      style="display: block"
    >
      <g opacity="1" transform="matrix(1,0,0,1,0,0)">
        <path
          fill="rgb(126,132,255)"
          fill-opacity="1"
          d=" M-367.45001220703125,102.94100189208984 C-367.45001220703125,102.94100189208984 -224.29600524902344,173.9949951171875 -224.29600524902344,173.9949951171875 C-224.29600524902344,173.9949951171875 -99.69400024414062,-77.04299926757812 -99.69400024414062,-77.04299926757812 C-99.69400024414062,-77.04299926757812 -242.84800720214844,-148.0970001220703 -242.84800720214844,-148.0970001220703 C-242.84800720214844,-148.0970001220703 -367.45001220703125,102.94100189208984 -367.45001220703125,102.94100189208984z"
        />
      </g>
      <g opacity="1" transform="matrix(1,0,0,1,0,0)">
        <path
          fill="rgb(255,255,255)"
          fill-opacity="1"
          d=" M-228.60400390625,-131.79800415039062 C-228.60400390625,-131.79800415039062 -121.28800201416016,-78.53299713134766 -121.28800201416016,-78.53299713134766 C-121.7020034790039,-72.8010025024414 -119.78800201416016,-67.11299896240234 -115.99199676513672,-62.79899978637695 C-115.99199676513672,-62.79899978637695 -222.8070068359375,152.39999389648438 -222.8070068359375,152.39999389648438 C-228.53799438476562,151.98599243164062 -234.2259979248047,153.9010009765625 -238.5399932861328,157.6959991455078 C-238.5399932861328,157.6959991455078 -345.8559875488281,104.43000030517578 -345.8559875488281,104.43000030517578 C-345.4419860839844,98.6989974975586 -347.3559875488281,93.01100158691406 -351.1520080566406,88.6969985961914 C-351.1520080566406,88.6969985961914 -244.33700561523438,-126.50299835205078 -244.33700561523438,-126.50299835205078 C-238.6060028076172,-126.08899688720703 -232.91900634765625,-128.0030059814453 -228.60400390625,-131.79800415039062z"
        />
      </g>
      <g opacity="1" transform="matrix(1,0,0,1,0,0)">
        <path
          fill="rgb(126,132,255)"
          fill-opacity="1"
          d=" M-206.38600158691406,-41.82400131225586 C-176.13600158691406,-26.80900001525879 -163.78399658203125,9.883999824523926 -178.7989959716797,40.1349983215332 C-193.81300354003906,70.38500213623047 -230.50799560546875,82.73600006103516 -260.75799560546875,67.72200012207031 C-291.00799560546875,52.707000732421875 -303.3590087890625,16.01300048828125 -288.3450012207031,-14.237000465393066 C-273.3299865722656,-44.48699951171875 -236.63600158691406,-56.8380012512207 -206.38600158691406,-41.82400131225586z"
        />
      </g>
      <g opacity="1" transform="matrix(1,0,0,1,0,0)">
        <path
          fill="rgb(255,255,255)"
          fill-opacity="1"
          d=" M-220.20399475097656,-4.896999835968018 C-223.29100036621094,-4.072000026702881 -226.02499389648438,-2.5889999866485596 -228.40899658203125,-0.4410000145435333 C-230.4669952392578,1.4170000553131104 -232.7760009765625,3.8429999351501465 -235.32400512695312,6.843999862670898 C-235.7270050048828,7.313000202178955 -236.13999938964844,7.801000118255615 -236.5570068359375,8.300000190734863 C-238.56300354003906,10.649999618530273 -240.2429962158203,12.541000366210938 -241.625,13.958000183105469 C-241.81700134277344,14.149999618530273 -242.00399780273438,14.331999778747559 -242.177001953125,14.508000373840332 C-243.64500427246094,15.97700023651123 -245.17999267578125,17.030000686645508 -246.77200317382812,17.670000076293945 C-248.36399841308594,18.309999465942383 -249.95399475097656,18.231000900268555 -251.56399536132812,17.424999237060547 C-253.85299682617188,16.275999069213867 -255.19700622558594,14.343999862670898 -255.58200073242188,11.645000457763672 C-255.77099609375,10.303000450134277 -255.66400146484375,8.798999786376953 -255.2550048828125,7.122000217437744 C-254.84100341796875,5.4120001792907715 -254.10499572753906,3.5139999389648438 -253.06300354003906,1.4359999895095825 C-252.6009979248047,0.5170000195503235 -252.08799743652344,-0.3889999985694885 -251.52099609375,-1.2790000438690186 C-250.5229949951172,-2.816999912261963 -249.3699951171875,-4.323999881744385 -248.04100036621094,-5.78000020980835 C-245.95399475097656,-8.07699966430664 -243.57899475097656,-10.086999893188477 -240.8979949951172,-11.822999954223633 C-240.8979949951172,-11.822999954223633 -247.343994140625,-19.167999267578125 -247.343994140625,-19.167999267578125 C-250.1490020751953,-17.566999435424805 -252.81199645996094,-15.317999839782715 -255.33099365234375,-12.446000099182129 C-257.1789855957031,-10.315999984741211 -258.8169860839844,-8.055000305175781 -260.23699951171875,-5.651000022888184 C-260.23699951171875,-5.651000022888184 -268.51300048828125,-9.803000450134277 -268.51300048828125,-9.803000450134277 C-268.51300048828125,-9.803000450134277 -272.6310119628906,-1.593999981880188 -272.6310119628906,-1.593999981880188 C-272.6310119628906,-1.593999981880188 -264.07598876953125,2.697000026702881 -264.07598876953125,2.697000026702881 C-265.02398681640625,5.4710001945495605 -265.55499267578125,8.104999542236328 -265.6780090332031,10.597000122070312 C-265.8840026855469,14.737000465393066 -265.14599609375,18.28499984741211 -263.4530029296875,21.243999481201172 C-261.7550048828125,24.19300079345703 -259.3630065917969,26.447999954223633 -256.2590026855469,28.0049991607666 C-252.58200073242188,29.850000381469727 -249.1750030517578,30.371000289916992 -246.05799865722656,29.559999465942383 C-242.95199584960938,28.7450008392334 -240.22300720214844,27.27199935913086 -237.8820037841797,25.13800048828125 C-236.09800720214844,23.514999389648438 -234.09100341796875,21.42799949645996 -231.84500122070312,18.863000869750977 C-231.1300048828125,18.05900001525879 -230.38600158691406,17.197999954223633 -229.6320037841797,16.29199981689453 C-228.1060028076172,14.491999626159668 -226.7570037841797,12.975000381469727 -225.58200073242188,11.729999542236328 C-225.02099609375,11.112000465393066 -224.4929962158203,10.562000274658203 -224.01400756835938,10.083000183105469 C-222.53500366210938,8.619000434875488 -220.99099731445312,7.572000026702881 -219.3800048828125,6.940999984741211 C-217.75900268554688,6.315000057220459 -216.1490020751953,6.4039998054504395 -214.5489959716797,7.205999851226807 C-212.3560028076172,8.305999755859375 -211.11199951171875,10.223999977111816 -210.8090057373047,12.942000389099121 C-210.62399291992188,14.604999542236328 -210.88099670410156,16.551000595092773 -211.58799743652344,18.749000549316406 C-212.04100036621094,20.152999877929688 -212.6699981689453,21.67099952697754 -213.48199462890625,23.290000915527344 C-214.12100219726562,24.56399917602539 -214.84500122070312,25.795000076293945 -215.64700317382812,26.98699951171875 C-216.96299743652344,28.94099998474121 -218.50399780273438,30.768999099731445 -220.25100708007812,32.481998443603516 C-223.07200622558594,35.23899841308594 -225.968994140625,37.31100082397461 -228.94200134277344,38.698001861572266 C-228.94200134277344,38.698001861572266 -222.6540069580078,46.358001708984375 -222.6540069580078,46.358001708984375 C-219.44700622558594,45.03099822998047 -216.21800231933594,42.65599822998047 -212.9600067138672,39.24399948120117 C-210.67599487304688,36.840999603271484 -208.6649932861328,34.21799850463867 -206.9219970703125,31.36400032043457 C-206.9219970703125,31.36400032043457 -198.5590057373047,35.55699920654297 -198.5590057373047,35.55699920654297 C-198.5590057373047,35.55699920654297 -194.44200134277344,27.349000930786133 -194.44200134277344,27.349000930786133 C-194.44200134277344,27.349000930786133 -202.86199951171875,23.125999450683594 -202.86199951171875,23.125999450683594 C-201.63600158691406,19.916000366210938 -200.95700073242188,16.864999771118164 -200.8040008544922,14.003999710083008 C-200.58299255371094,9.835000038146973 -201.30799865722656,6.2820000648498535 -202.9810028076172,3.3329999446868896 C-204.64500427246094,0.3889999985694885 -207.0240020751953,-1.847000002861023 -210.1269989013672,-3.4040000438690186 C-213.75799560546875,-5.223999977111816 -217.11700439453125,-5.7230000495910645 -220.20399475097656,-4.896999835968018z"
        />
      </g>
    </g>
    <g
      transform="matrix(0.9688371419906616,0,0,0.9688371419906616,492.4043273925781,508.8365478515625)"
      opacity="1"
      style="display: block"
    >
      <g opacity="1" transform="matrix(1,0,0,1,0,0)">
        <path
          fill="rgb(126,132,255)"
          fill-opacity="1"
          d=" M-204.84300231933594,298.29901123046875 C-211.6750030517578,320.19000244140625 -234.96099853515625,332.3970031738281 -256.85198974609375,325.56500244140625 C-278.7430114746094,318.73199462890625 -290.95001220703125,295.4469909667969 -284.11700439453125,273.5559997558594 C-277.2850036621094,251.6649932861328 -253.99899291992188,239.45700073242188 -232.10800170898438,246.2899932861328 C-210.2169952392578,253.1230010986328 -198.00999450683594,276.4079895019531 -204.84300231933594,298.29901123046875z"
        />
      </g>
      <g opacity="1" transform="matrix(1,0,0,1,0,0)">
        <path
          fill="rgb(209,214,255)"
          fill-opacity="1"
          d=" M-203.36500549316406,293.5639953613281 C-210.197998046875,315.4549865722656 -233.48300170898438,327.6619873046875 -255.37399291992188,320.8290100097656 C-277.2650146484375,313.9960021972656 -289.47198486328125,290.7120056152344 -282.6390075683594,268.8210144042969 C-275.8070068359375,246.92999267578125 -252.52200317382812,234.7220001220703 -230.63099670410156,241.55499267578125 C-208.74000549316406,248.38699340820312 -196.5330047607422,271.6730041503906 -203.36500549316406,293.5639953613281z"
        />
      </g>
      <g opacity="1" transform="matrix(1,0,0,1,0,0)">
        <path
          fill="rgb(126,132,255)"
          fill-opacity="1"
          d=" M-209.3000030517578,291.7120056152344 C-215.11000061035156,310.32501220703125 -234.9080047607422,320.7049865722656 -253.52099609375,314.8949890136719 C-272.1340026855469,309.0849914550781 -282.5140075683594,289.2860107421875 -276.7040100097656,270.6730041503906 C-270.8940124511719,252.05999755859375 -251.0959930419922,241.67999267578125 -232.48300170898438,247.49000549316406 C-213.8699951171875,253.3000030517578 -203.49000549316406,273.0989990234375 -209.3000030517578,291.7120056152344z"
        />
      </g>
      <g opacity="1" transform="matrix(1,0,0,1,0,0)">
        <path
          fill="rgb(255,255,255)"
          fill-opacity="1"
          d=" M-231.26499938964844,287.3210144042969 C-232.04800415039062,285.5849914550781 -233.18299865722656,284.1199951171875 -234.67599487304688,282.92498779296875 C-235.9669952392578,281.8940124511719 -237.61599731445312,280.7690124511719 -239.62600708007812,279.55999755859375 C-239.9409942626953,279.3689880371094 -240.26800537109375,279.1719970703125 -240.6009979248047,278.9750061035156 C-242.17599487304688,278.0220031738281 -243.4499969482422,277.21600341796875 -244.41600036621094,276.5400085449219 C-244.5469970703125,276.4460144042969 -244.6719970703125,276.3529968261719 -244.79299926757812,276.26800537109375 C-245.7989959716797,275.5459899902344 -246.56500244140625,274.7460021972656 -247.09500122070312,273.8710021972656 C-247.625,272.9960021972656 -247.73199462890625,272.0530090332031 -247.41299438476562,271.02899169921875 C-246.95799255371094,269.5719909667969 -245.9499969482422,268.5950012207031 -244.4010009765625,268.1090087890625 C-243.6300048828125,267.8680114746094 -242.73500061035156,267.7869873046875 -241.70899963378906,267.8659973144531 C-240.66299438476562,267.94500732421875 -239.4770050048828,268.1940002441406 -238.1540069580078,268.60699462890625 C-237.56900024414062,268.7900085449219 -236.98699951171875,269.0050048828125 -236.40899658203125,269.25299072265625 C-235.4080047607422,269.6919860839844 -234.41099548339844,270.2239990234375 -233.427001953125,270.864990234375 C-231.875,271.8710021972656 -230.46400451660156,273.07501220703125 -229.18499755859375,274.4840087890625 C-229.18499755859375,274.4840087890625 -225.48699951171875,269.9859924316406 -225.48699951171875,269.9859924316406 C-226.69900512695312,268.4909973144531 -228.2779998779297,267.1400146484375 -230.20899963378906,265.9360046386719 C-231.63999938964844,265.0539855957031 -233.1280059814453,264.30999755859375 -234.67799377441406,263.70599365234375 C-234.67799377441406,263.70599365234375 -233.03399658203125,258.4389953613281 -233.03399658203125,258.4389953613281 C-233.03399658203125,258.4389953613281 -238.25799560546875,256.8080139160156 -238.25799560546875,256.8080139160156 C-238.25799560546875,256.8080139160156 -239.95700073242188,262.25201416015625 -239.95700073242188,262.25201416015625 C-241.6790008544922,261.9620056152344 -243.27999877929688,261.90301513671875 -244.7570037841797,262.0710144042969 C-247.21099853515625,262.3489990234375 -249.2259979248047,263.1239929199219 -250.80299377441406,264.4049987792969 C-252.37399291992188,265.68701171875 -253.47000122070312,267.31201171875 -254.08700561523438,269.2869873046875 C-254.8179931640625,271.62701416015625 -254.7969970703125,273.6809997558594 -254.0189971923828,275.4360046386719 C-253.24099731445312,277.1839904785156 -252.11099243164062,278.6470031738281 -250.63099670410156,279.8179931640625 C-249.5050048828125,280.71099853515625 -248.08399963378906,281.6889953613281 -246.35899353027344,282.76300048828125 C-245.81700134277344,283.1059875488281 -245.23899841308594,283.46099853515625 -244.63400268554688,283.8169860839844 C-243.4290008544922,284.5409851074219 -242.40699768066406,285.18798828125 -241.56100463867188,285.7590026855469 C-241.1439971923828,286.0299987792969 -240.7689971923828,286.2869873046875 -240.4409942626953,286.52301025390625 C-239.43800354003906,287.2510070800781 -238.67300415039062,288.0580139160156 -238.14700317382812,288.94500732421875 C-237.6230010986328,289.8380126953125 -237.52000427246094,290.79400634765625 -237.83799743652344,291.81201171875 C-238.2740020751953,293.2070007324219 -239.28199768066406,294.12298583984375 -240.8509979248047,294.5639953613281 C-241.81100463867188,294.8330078125 -242.97999572753906,294.8689880371094 -244.34100341796875,294.6650085449219 C-245.2100067138672,294.53399658203125 -246.16400146484375,294.30999755859375 -247.19400024414062,293.989013671875 C-248.0050048828125,293.7359924316406 -248.7969970703125,293.4280090332031 -249.5760040283203,293.0710144042969 C-250.8520050048828,292.4849853515625 -252.0749969482422,291.7560119628906 -253.25100708007812,290.8940124511719 C-255.1439971923828,289.5010070800781 -256.6419982910156,287.9960021972656 -257.7439880371094,286.3810119628906 C-257.7439880371094,286.3810119628906 -261.6419982910156,290.8169860839844 -261.6419982910156,290.8169860839844 C-260.5530090332031,292.57501220703125 -258.84600830078125,294.2449951171875 -256.5249938964844,295.8320007324219 C-254.89199829101562,296.9429931640625 -253.15499877929688,297.8739929199219 -251.3090057373047,298.6239929199219 C-251.3090057373047,298.6239929199219 -252.97000122070312,303.9460144042969 -252.97000122070312,303.9460144042969 C-252.97000122070312,303.9460144042969 -247.74600219726562,305.57598876953125 -247.74600219726562,305.57598876953125 C-247.74600219726562,305.57598876953125 -246.07400512695312,300.2179870605469 -246.07400512695312,300.2179870605469 C-244.0679931640625,300.6300048828125 -242.20799255371094,300.7349853515625 -240.51100158691406,300.54901123046875 C-238.03799438476562,300.27801513671875 -236.0189971923828,299.510009765625 -234.4459991455078,298.24200439453125 C-232.87399291992188,296.9800109863281 -231.78900146484375,295.364990234375 -231.1719970703125,293.3900146484375 C-230.4510040283203,291.0799865722656 -230.48199462890625,289.0570068359375 -231.26499938964844,287.3210144042969z"
        />
      </g>
    </g>
    <g
      transform="matrix(0.9542219638824463,0,0,0.9542219638824463,515.5457763671875,505.14776611328125)"
      opacity="1"
      style="display: block"
    >
      <g opacity="1" transform="matrix(1,0,0,1,0,0)">
        <path
          fill="rgb(126,132,255)"
          fill-opacity="1"
          d=" M373.7149963378906,88.66100311279297 C387.9280090332031,106.65799713134766 384.8599853515625,132.77000427246094 366.8630065917969,146.98300170898438 C348.8659973144531,161.1959991455078 322.7550048828125,158.1280059814453 308.5419921875,140.13099670410156 C294.3290100097656,122.13400268554688 297.3970031738281,96.02300262451172 315.3940124511719,81.80999755859375 C333.3909912109375,67.59700012207031 359.50201416015625,70.66400146484375 373.7149963378906,88.66100311279297z"
        />
      </g>
      <g opacity="1" transform="matrix(1,0,0,1,0,0)">
        <path
          fill="rgb(255,255,255)"
          fill-opacity="1"
          d=" M370.6409912109375,84.76799774169922 C384.85400390625,102.76499938964844 381.7860107421875,128.8769989013672 363.78900146484375,143.08999633789062 C345.7919921875,157.30299377441406 319.6809997558594,154.23500061035156 305.4679870605469,136.23800659179688 C291.2550048828125,118.24099731445312 294.3219909667969,92.12999725341797 312.3190002441406,77.91699981689453 C330.3160095214844,63.702999114990234 356.4280090332031,66.77100372314453 370.6409912109375,84.76799774169922z"
        />
      </g>
      <g opacity="1" transform="matrix(1,0,0,1,0,0)">
        <path
          fill="rgb(126,132,255)"
          fill-opacity="1"
          d=" M365.760986328125,88.62200164794922 C377.84600830078125,103.92400360107422 375.2380065917969,126.125 359.9360046386719,138.2100067138672 C344.63299560546875,150.2949981689453 322.4320068359375,147.68800354003906 310.34698486328125,132.38499450683594 C298.2619934082031,117.08300018310547 300.8710021972656,94.88099670410156 316.1730041503906,82.7959976196289 C331.4750061035156,70.71099853515625 353.6759948730469,73.31900024414062 365.760986328125,88.62200164794922z"
        />
      </g>
      <g opacity="1" transform="matrix(1,0,0,1,0,0)">
        <path
          fill="rgb(255,255,255)"
          fill-opacity="1"
          d=" M349.7380065917969,104.2750015258789 C347.8630065917969,103.94100189208984 346.01300048828125,104.05000305175781 344.1839904785156,104.60800170898438 C342.60400390625,105.09100341796875 340.7460021972656,105.81800079345703 338.6130065917969,106.79499816894531 C338.2770080566406,106.9469985961914 337.92999267578125,107.10700225830078 337.5790100097656,107.2699966430664 C335.90301513671875,108.03199768066406 334.5190124511719,108.62899780273438 333.4150085449219,109.04499816894531 C333.26300048828125,109.0999984741211 333.11700439453125,109.1500015258789 332.97900390625,109.2020034790039 C331.81500244140625,109.6240005493164 330.72100830078125,109.80500030517578 329.70001220703125,109.7490005493164 C328.6789855957031,109.69300079345703 327.8399963378906,109.2490005493164 327.17498779296875,108.40699768066406 C326.2300109863281,107.20899963378906 325.99200439453125,105.8270034790039 326.4649963378906,104.27300262451172 C326.7019958496094,103.5009994506836 327.1390075683594,102.71600341796875 327.78399658203125,101.91400146484375 C328.4389953613281,101.09500122070312 329.31500244140625,100.25599670410156 330.4020080566406,99.39800262451172 C330.88299560546875,99.01799774169922 331.3890075683594,98.65899658203125 331.9200134277344,98.32099914550781 C332.84698486328125,97.74299621582031 333.8500061035156,97.22000122070312 334.93499755859375,96.7699966430664 C336.6409912109375,96.05699920654297 338.42999267578125,95.5719985961914 340.3160095214844,95.31199645996094 C340.3160095214844,95.31199645996094 338.6910095214844,89.72000122070312 338.6910095214844,89.72000122070312 C336.7720031738281,89.8759994506836 334.7669982910156,90.41799926757812 332.6820068359375,91.33200073242188 C331.1470031738281,92.01599884033203 329.6919860839844,92.8219985961914 328.3190002441406,93.76100158691406 C328.3190002441406,93.76100158691406 324.89898681640625,89.43099975585938 324.89898681640625,89.43099975585938 C324.89898681640625,89.43099975585938 320.6050109863281,92.8219985961914 320.6050109863281,92.8219985961914 C320.6050109863281,92.8219985961914 324.1390075683594,97.2979965209961 324.1390075683594,97.2979965209961 C322.927001953125,98.55599975585938 321.9750061035156,99.84400177001953 321.2799987792969,101.15799713134766 C320.1239929199219,103.34100341796875 319.6260070800781,105.44200134277344 319.7929992675781,107.46700286865234 C319.9649963378906,109.48799896240234 320.68798828125,111.30899810791016 321.9700012207031,112.93299865722656 C323.489013671875,114.85700225830078 325.1969909667969,115.9990005493164 327.0840148925781,116.3479995727539 C328.96600341796875,116.69300079345703 330.8110046386719,116.58599853515625 332.614013671875,116.0250015258789 C333.98699951171875,115.5989990234375 335.59600830078125,114.97899627685547 337.45599365234375,114.16100311279297 C338.0450134277344,113.90699768066406 338.6650085449219,113.62999725341797 339.29998779296875,113.33200073242188 C340.5780029296875,112.74600219726562 341.6889953613281,112.26799774169922 342.6369934082031,111.89199829101562 C343.09600830078125,111.70099639892578 343.5199890136719,111.53600311279297 343.8999938964844,111.39900207519531 C345.0679931640625,110.98200225830078 346.1659851074219,110.80599975585938 347.19500732421875,110.87200164794922 C348.2279968261719,110.94400024414062 349.0740051269531,111.39800262451172 349.7349853515625,112.23500061035156 C350.6409912109375,113.38200378417969 350.8290100097656,114.73100280761719 350.3059997558594,116.2750015258789 C349.9859924316406,117.22000122070312 349.35699462890625,118.20500183105469 348.4200134277344,119.21299743652344 C347.8210144042969,119.85600280761719 347.0979919433594,120.51699829101562 346.2510070800781,121.18599700927734 C345.5849914550781,121.71299743652344 344.8819885253906,122.19499969482422 344.14898681640625,122.63600158691406 C342.94500732421875,123.35800170898438 341.6520080566406,123.95500183105469 340.2770080566406,124.43900299072266 C338.0580139160156,125.21499633789062 335.97100830078125,125.60299682617188 334.0159912109375,125.60099792480469 C334.0159912109375,125.60099792480469 335.47698974609375,131.322998046875 335.47698974609375,131.322998046875 C337.5429992675781,131.41600036621094 339.8840026855469,130.9499969482422 342.5050048828125,129.92999267578125 C344.343994140625,129.20899963378906 346.0929870605469,128.30099487304688 347.7539978027344,127.20099639892578 C347.7539978027344,127.20099639892578 351.2090148925781,131.5760040283203 351.2090148925781,131.5760040283203 C351.2090148925781,131.5760040283203 355.5039978027344,128.1840057373047 355.5039978027344,128.1840057373047 C355.5039978027344,128.1840057373047 352.0249938964844,123.77899932861328 352.0249938964844,123.77899932861328 C353.49798583984375,122.35600280761719 354.6340026855469,120.87999725341797 355.4389953613281,119.3740005493164 C356.6099853515625,117.17900085449219 357.1159973144531,115.0790023803711 356.9570007324219,113.06500244140625 C356.802001953125,111.05500030517578 356.0830078125,109.24800109863281 354.8009948730469,107.6240005493164 C353.29998779296875,105.7249984741211 351.6130065917969,104.60800170898438 349.7380065917969,104.2750015258789z"
        />
      </g>
    </g>
    <g
      style="display: block"
      transform="matrix(0.920444667339325,0.2648217976093292,-0.2648217976093292,0.920444667339325,465.7340087890625,504.2960510253906)"
      opacity="1"
    >
      <g opacity="1" transform="matrix(1,0,0,1,0,0)">
        <path
          fill="rgb(245,87,37)"
          fill-opacity="1"
          d=" M19.398000717163086,-289.6960144042969 C19.398000717163086,-361.45599365234375 -38.77399826049805,-419.62799072265625 -110.53299713134766,-419.62799072265625 C-182.29200744628906,-419.62799072265625 -240.46499633789062,-361.45599365234375 -240.46499633789062,-289.6960144042969 C-240.46499633789062,-217.93699645996094 -182.29200744628906,-159.76499938964844 -110.53299713134766,-159.76499938964844 C-108.21900177001953,-159.76499938964844 -105.9209976196289,-159.8300018310547 -103.63700103759766,-159.9499969482422 C-103.63700103759766,-159.9499969482422 -50.96200180053711,-104.79499816894531 -50.96200180053711,-104.79499816894531 C-50.96200180053711,-104.79499816894531 -50.96200180053711,-174.23699951171875 -50.96200180053711,-174.23699951171875 C-9.180000305175781,-195.83900451660156 19.398000717163086,-239.41600036621094 19.398000717163086,-289.6960144042969z"
        />
      </g>
    </g>
    <g mask="url(#__lottie_element_14409_1)" style="display: block">
      <g
        transform="matrix(0.920444667339325,0.2648217976093292,-0.2648217976093292,0.920444667339325,465.7340087890625,504.2960510253906)"
        opacity="1"
      >
        <g opacity="1" transform="matrix(1,0,0,1,0,0)">
          <path
            fill="rgb(255,255,255)"
            fill-opacity="1"
            d=" M-32.415000915527344,-335.72698974609375 C-32.415000915527344,-335.72698974609375 -117.052001953125,-224.73500061035156 -117.052001953125,-224.73500061035156 C-119.2770004272461,-221.8179931640625 -123.44499969482422,-221.25599670410156 -126.36199951171875,-223.4810028076172 C-126.36199951171875,-223.4810028076172 -182.07200622558594,-265.9620056152344 -182.07200622558594,-265.9620056152344 C-188.4239959716797,-270.8059997558594 -189.64700317382812,-279.8819885253906 -184.80299377441406,-286.2340087890625 C-184.80299377441406,-286.2340087890625 -184.80299377441406,-286.2340087890625 -184.80299377441406,-286.2340087890625 C-179.95899963378906,-292.58599853515625 -170.88299560546875,-293.8089904785156 -164.531005859375,-288.9649963378906 C-164.531005859375,-288.9649963378906 -131.82400512695312,-264.0249938964844 -131.82400512695312,-264.0249938964844 C-128.90699768066406,-261.79998779296875 -124.73899841308594,-262.36199951171875 -122.51399993896484,-265.27899169921875 C-122.51399993896484,-265.27899169921875 -55.41899871826172,-353.26800537109375 -55.41899871826172,-353.26800537109375 C-50.57500076293945,-359.6199951171875 -41.499000549316406,-360.8429870605469 -35.14699935913086,-355.9989929199219 C-35.14699935913086,-355.9989929199219 -35.14699935913086,-355.9989929199219 -35.14699935913086,-355.9989929199219 C-28.795000076293945,-351.1549987792969 -27.570999145507812,-342.0790100097656 -32.415000915527344,-335.72698974609375z"
          />
        </g>
      </g>
    </g>
  </g>
</svg>
