<svg xmlns="http://www.w3.org/2000/svg" viewBox="0 0 48 48" id="close-sign">
  <g>
    <path
      fill="#dad7e5"
      d="M6 22a1 1 0 0 1-.64-1.77L21.06 7.15a1 1 0 0 1 1.28 1.54C5.27 22.91 6.52 22 6 22zM42 22c-.52 0 .81 1-16.34-13.31a1 1 0 0 1 1.28-1.54l15.7 13.08A1 1 0 0 1 42 22z"
    ></path>
    <rect width="46" height="24" x="1" y="21" fill="#db5669"></rect>
    <path fill="#f26674" d="M47,21V43H7a4,4,0,0,1-3.44-2C2.77,39.72,3,40.15,3,21Z"></path>
    <path fill="#c4455e" d="M6.29,27.71,1,22.42V21H2.42l5.29,5.29A1,1,0,0,1,6.29,27.71Z"></path>
    <path
      fill="#db5669"
      d="M6.29 27.71L3 24.42V21.58l4.71 4.71A1 1 0 0 1 6.29 27.71zM47 21v1.42l-5.29 5.29a1 1 0 0 1-1.42-1.42L45.58 21z"
    ></path>
    <path
      fill="#c4455e"
      d="M7.71 39.71L2.42 45H1V43.58l5.29-5.29A1 1 0 0 1 7.71 39.71zM47 43.58V45H45.58l-4.29-4.29a1 1 0 0 1 1.42-1.42z"
    ></path>
    <path fill="#374f68" d="M27,6a3,3,0,1,1-3.87-2.87A3,3,0,0,1,27,6Z"></path>
    <path fill="#425b72" d="M26.87,6.87a3,3,0,0,1-3.74-3.74A3,3,0,0,1,26.87,6.87Z"></path>
    <path
      fill="#db5669"
      d="M7.71 39.71L5 42.44A3.72 3.72 0 0 1 3.56 41l2.73-2.73A1 1 0 0 1 7.71 39.71zM46.42 43H43.58l-2.29-2.29a1 1 0 0 1 1.42-1.42z"
    ></path>
    <rect width="38" height="16" x="5" y="25" fill="#dad7e5"></rect>
    <path fill="#edebf2" d="M43,25V39H10a3,3,0,0,1-3-3V25Z"></path>
    <path
      fill="#c4455e"
      d="M24 28a3 3 0 0 0-3 3v4a3 3 0 0 0 6 0V31A3 3 0 0 0 24 28zm1 7a1 1 0 0 1-2 0V31a1 1 0 0 1 2 0zM12 31a1 1 0 0 0 1 1c1.91 0 1-4-2-4a3 3 0 0 0-3 3v4a3 3 0 0 0 6 0 1 1 0 0 0-2 0 1 1 0 0 1-2 0V31A1 1 0 0 1 12 31zM39 34a1 1 0 0 0 0-2H37V30h2a1 1 0 0 0 0-2H36a1 1 0 0 0-1 1v8a1 1 0 0 0 1 1h3a1 1 0 0 0 0-2H37V34zM31 30h2a1 1 0 0 0 0-2H31a3 3 0 0 0 0 6 1 1 0 0 1 0 2H29a1 1 0 0 0 0 2h2a3 3 0 0 0 0-6A1 1 0 0 1 31 30zM19 36H17V29a1 1 0 0 0-2 0v8a1 1 0 0 0 1 1h3A1 1 0 0 0 19 36z"
    ></path>
    <path
      d="M48,20.93A1,1,0,0,0,47,20H42.36L27.6,7.7a4,4,0,1,0-7.2,0L5.64,20c-4.83,0-5.22-.2-5.56.62C0,20.89,0,19.24,0,45a1,1,0,0,0,.62.92C.91,46-2.17,46,47,46a1,1,0,0,0,1-.93C48,44.7,48,21.18,48,20.93ZM24,4a2,2,0,1,1-2,2A2,2,0,0,1,24,4ZM21.68,9.24a3.93,3.93,0,0,0,4.64,0L39.24,20H8.76ZM44.59,22l-2,2H5.41l-2-2ZM42,26V40H6V26ZM2,23.41l2,2V40.59l-2,2ZM3.41,44l2-2H42.59l2,2ZM46,42.59l-2-2V25.41l2-2Z"
    ></path>
    <path
      d="M24 38a3 3 0 0 0 3-3V31a3 3 0 0 0-6 0v4A3 3 0 0 0 24 38zm-1-7a1 1 0 0 1 2 0v4a1 1 0 0 1-2 0zM11 38c3 0 3.92-4 2-4a1 1 0 0 0-1 1 1 1 0 0 1-2 0V31a1 1 0 0 1 2 0 1 1 0 0 0 2 0 3 3 0 0 0-6 0v4A3 3 0 0 0 11 38zM36 38h3a1 1 0 0 0 0-2H37V34h2a1 1 0 0 0 0-2H37V30h2a1 1 0 0 0 0-2H36a1 1 0 0 0-1 1v8A1 1 0 0 0 36 38zM31 36H29a1 1 0 0 0 0 2h2a3 3 0 0 0 0-6 1 1 0 0 1 0-2h2a1 1 0 0 0 0-2H31a3 3 0 0 0 0 6A1 1 0 0 1 31 36zM16 38h3a1 1 0 0 0 0-2H17V29a1 1 0 0 0-2 0v8A1 1 0 0 0 16 38z"
    ></path>
  </g>
</svg>
