<svg xmlns="http://www.w3.org/2000/svg" viewBox="0 0 64 64" id="download">
  <path fill="#f28482" d="M40 34V2H24v32h-4l12 16 12-16h-4z"></path>
  <path fill="#184e77" d="M54 46v8H10v-8H2v16h60V46h-8z"></path>
  <path d="M62 45h-8a1 1 0 0 0-1 1v7H11v-7a1 1 0 0 0-1-1H2a1 1 0 0 0-1 1v16a1 1 0 0 0 1 1h60a1 1 0 0 0 1-1V46a1 1 0 0 0-1-1Zm-1 16H3V47h6v7a1 1 0 0 0 1 1h44a1 1 0 0 0 1-1v-7h6Z"></path>
  <path d="M31.2 50.6a1 1 0 0 0 1.6 0l12-16a1 1 0 0 0 .09-1.05A1 1 0 0 0 44 33h-3V2a1 1 0 0 0-1-1H24a1 1 0 0 0-1 1v31h-3a1 1 0 0 0-.89.55 1 1 0 0 0 .09 1.05ZM24 35a1 1 0 0 0 1-1V3h14v31a1 1 0 0 0 1 1h2L32 48.33 22 35Z"></path>
</svg>
