<svg xmlns="http://www.w3.org/2000/svg" viewBox="0 0 46.77 46.77" id="download">
  <path fill="#1565c0" d="M46.77 36.42v8.87a1.49 1.49 0 0 1-1.49 1.48H1.48A1.48 1.48 0 0 1 0 45.29v-8.87a1.48 1.48 0 0 1 1.48-1.48h16.7a.36.36 0 0 1 .26.11l4.73 4.47a.39.39 0 0 0 .53 0l4.72-4.47a.39.39 0 0 1 .27-.11h16.59a1.49 1.49 0 0 1 1.49 1.48Z"></path>
  <path fill="#8ac926" d="M33.42 24.42a.37.37 0 0 1 .26.64l-4.38 4.16-.77.72-4.83 4.58a.39.39 0 0 1-.53 0l-4.84-4.58-.87-.82-4.27-4.06a.37.37 0 0 1 .25-.64h3.65a.36.36 0 0 0 .37-.37V.94A.94.94 0 0 1 18.4 0h10a.94.94 0 0 1 .94.94v23.11a.36.36 0 0 0 .37.37Z"></path>
</svg>
