<svg xmlns="http://www.w3.org/2000/svg" viewBox="0 0 512 512" id="graded-product">
  <path
    d="M257 244a2 2 0 0 0-2 2v26.28a60.73 60.73 0 0 0-47.9 25.75 62.27 62.27 0 0 0-8.83 55.15 1.34 1.34 0 0 0 .07.18l15.38 36.28a35.65 35.65 0 0 0 11 15 21.29 21.29 0 0 0 23.73 1.79 17.51 17.51 0 0 1 17.12 0 21.74 21.74 0 0 0 10.62 2.78 21 21 0 0 0 13.11-4.57 35.46 35.46 0 0 0 11-14.92l15.41-36.34.06-.18a62.47 62.47 0 0 0-27.29-72.27 45.08 45.08 0 0 0 6.4-2.76 45.85 45.85 0 0 0 23.11-29.67 2 2 0 0 0-1.17-2.32A45.79 45.79 0 0 0 259 266.26V246a2 2 0 0 0-2-2zm26.59 38.75a58.45 58.45 0 0 1 28.35 69.14l-15.39 36.31a31.5 31.5 0 0 1-9.75 13.29 17.31 17.31 0 0 1-19.33 1.51 21.42 21.42 0 0 0-21 0 17.32 17.32 0 0 1-19.29-1.43 31.51 31.51 0 0 1-9.78-13.36L202 351.92a58.28 58.28 0 0 1 8.3-51.54 56.77 56.77 0 0 1 44.56-24.06l-.09.33-.24.94a2 2 0 0 0 1.17 2.32c.27.12.54.23.82.33l.95.37a45.84 45.84 0 0 0 15.94 2.86 45.37 45.37 0 0 0 9.5-1zm-4-31.33a41.64 41.64 0 0 1 34.05-2.21A41.77 41.77 0 0 1 259 276.89v-.29a41.46 41.46 0 0 1 20.53-25.15zM254 151.24A19.86 19.86 0 0 0 236.27 169h-27.76a2 2 0 0 0-1.61.8L188 195.21a2 2 0 0 0 0 2.39l20.1 27 3.2-2.39-19.2-25.81 17.41-23.4h94.2l17.41 23.37-19.21 25.79 3.21 2.39 20.1-27a2 2 0 0 0 0-2.39l-18.9-25.38a2 2 0 0 0-1.61-.8h-29A19.86 19.86 0 0 0 258 151.24v-48.78h73.76v-22h-.22a10.32 10.32 0 0 0-10.08-8.2H190.54a10.32 10.32 0 0 0-10.08 8.2h-.22v22H254zM271.71 169h-31.42a15.84 15.84 0 0 1 31.42 0zm-81.17-92.77h130.92a6.31 6.31 0 0 1 5.93 4.2H184.61a6.31 6.31 0 0 1 5.93-4.2zm-6.3 22.23V84.54h143.52v13.92H258v-.21h-4v.21zM98.82 373.2l9.79 23.09a23.36 23.36 0 0 0 7.23 9.85 14.29 14.29 0 0 0 15.93 1.21 10.41 10.41 0 0 1 10.2 0 14.6 14.6 0 0 0 7.12 1.87 14.06 14.06 0 0 0 8.8-3.08 23.34 23.34 0 0 0 7.21-9.79l9.81-23.15a1.34 1.34 0 0 0 .09-.2 40.76 40.76 0 0 0-16.12-45.88c.83-.35 1.65-.72 2.46-1.14a30 30 0 0 0 15.09-19.38 2 2 0 0 0-1.18-2.32 29.83 29.83 0 0 0-36.36 10.92v-10.33a2 2 0 0 0-4 0v15.7a39.38 39.38 0 0 0-30.39 16.67A40.4 40.4 0 0 0 98.75 373a1.34 1.34 0 0 0 .07.2zm52.76-64.2a25.79 25.79 0 0 1 20.47-1.61A25.88 25.88 0 0 1 139 324.06 26 26 0 0 1 151.58 309zm-43.84 30.59a35.43 35.43 0 0 1 26.94-15 1.89 1.89 0 0 0-.05.23 2 2 0 0 0 1.17 2.32c.39.16.78.32 1.18.46a30 30 0 0 0 10.38 1.86 30.4 30.4 0 0 0 6.44-.71l.44.24a36.71 36.71 0 0 1 16.95 42.75l-9.8 23.12a19.47 19.47 0 0 1-6 8.17 10.33 10.33 0 0 1-11.49.84 14.37 14.37 0 0 0-14.09 0 10.31 10.31 0 0 1-11.49-.84 19.49 19.49 0 0 1-6-8.23l-9.78-23.06a36.43 36.43 0 0 1 5.2-32.18zm235.83 33.61 9.79 23.09a23.36 23.36 0 0 0 7.23 9.85 14.29 14.29 0 0 0 15.93 1.21 10.41 10.41 0 0 1 10.2 0 14.6 14.6 0 0 0 7.12 1.87 14.09 14.09 0 0 0 8.81-3.08 23.4 23.4 0 0 0 7.2-9.79l9.82-23.15a1.27 1.27 0 0 0 .06-.18 40.78 40.78 0 0 0-16.11-45.88c.83-.35 1.65-.72 2.45-1.14a29.69 29.69 0 0 0 14.75-18.11c.12-.42.23-.85.34-1.27a2 2 0 0 0-1.16-2.32 29.93 29.93 0 0 0-36.37 10.86v-10.29a2 2 0 0 0-4 0v15.7a39.39 39.39 0 0 0-30.39 16.67A40.4 40.4 0 0 0 343.5 373zm52.76-64.2a25.79 25.79 0 0 1 20.47-1.61 25.88 25.88 0 0 1-33.06 16.7A25.64 25.64 0 0 1 396.33 309zm-43.84 30.59a35.45 35.45 0 0 1 26.95-15l-.06.23a2 2 0 0 0 1.17 2.32 29.66 29.66 0 0 0 18 1.61l.5.29A36.74 36.74 0 0 1 416 371.73l-9.81 23.12a19.3 19.3 0 0 1-6 8.17 10.31 10.31 0 0 1-11.48.84 14.39 14.39 0 0 0-14.1 0 10.29 10.29 0 0 1-11.48-.84 19.43 19.43 0 0 1-6-8.23l-9.78-23.06a36.43 36.43 0 0 1 5.14-32.17zm76.22 73.14H83.29a13.52 13.52 0 0 0 0 27h345.42a13.52 13.52 0 1 0 0-27zm0 23H83.29a9.52 9.52 0 0 1 0-19h345.42a9.52 9.52 0 1 1 0 19z"
  ></path>
</svg>
