<svg xmlns="http://www.w3.org/2000/svg" viewBox="0 0 32 32" id="left-arrow">
  <g>
    <path fill="#ff5964" d="M8.462 23.905a2.64 2.64 0 0 0 2.061.99h.005a2.422 2.422 0 0 0 2.004-3.782L10.55 18.19l6.526.872a3.138 3.138 0 0 0 1.605-.09 3.17 3.17 0 0 0 0-5.966 3.138 3.138 0 0 0-1.605-.089l-6.512.852 1.97-2.903a2.422 2.422 0 0 0-2.005-3.782h-.005a2.64 2.64 0 0 0-2.061.99l-5.673 7.09a1.32 1.32 0 0 0 0 1.65zM26 28a2 2 0 0 1-2-2V6a2 2 0 0 1 4 0v20a2 2 0 0 1-2 2z"></path>
    <path fill="#232526" d="M26 28.5a2.503 2.503 0 0 1-2.5-2.5V6a2.5 2.5 0 0 1 5 0v20a2.503 2.503 0 0 1-2.5 2.5zm0-24A1.502 1.502 0 0 0 24.5 6v20a1.5 1.5 0 0 0 3 0V6A1.502 1.502 0 0 0 26 4.5zM10.527 25.395a3.127 3.127 0 0 1-2.456-1.178l-5.673-7.09a1.811 1.811 0 0 1 0-2.274l5.673-7.091a3.127 3.127 0 0 1 2.452-1.178 2.923 2.923 0 0 1 2.423 4.563l-1.345 1.981 5.41-.707a3.564 3.564 0 0 1 1.838.115 3.67 3.67 0 0 1 0 6.907 3.61 3.61 0 0 1-1.862.111l-5.397-.72 1.357 1.999a2.923 2.923 0 0 1-2.42 4.563zm0-17.812a2.132 2.132 0 0 0-1.674.804l-5.673 7.09a.815.815 0 0 0 0 1.024l5.673 7.091a2.127 2.127 0 0 0 1.67.804 1.923 1.923 0 0 0 1.595-3.002l-1.983-2.923a.5.5 0 0 1-.01-.544.49.49 0 0 1 .49-.233l6.527.872a2.642 2.642 0 0 0 1.369-5.089 2.617 2.617 0 0 0-1.348-.068l-6.536.855a.5.5 0 0 1-.478-.776l1.97-2.903a1.923 1.923 0 0 0-1.591-3.002z"></path>
  </g>
</svg>
