<svg xmlns="http://www.w3.org/2000/svg" width="40" height="40" id="offer">
  <path
    d="M770.998 1114.517c20.768 12.811 44.917 15.621 67.999 7.915 25.159-8.401 48.333-28.851 67.017-59.14 17.467-28.319 25.145-56.027 22.202-80.125-2.914-23.849-15.997-43.574-37.833-57.044-20.885-12.883-45.408-15.552-69.054-7.516-25.131 8.542-47.903 28.438-65.868 57.562-17.664 29.131-24.951 57.899-21.073 83.193 3.555 23.197 16.557 42.785 36.61 55.155zm23.919-115.947c24.116-39.096 53.594-55.787 75.1-42.521 11.848 7.308 17.193 18.941 15.885 34.578-1.195 14.301-7.979 31.832-19.617 50.698-12.021 19.49-43.433 62.692-75.384 42.982-7.566-4.668-12.435-11.635-14.471-20.712-3.879-17.302 2.841-40.975 18.487-65.025zM1009 1169.98c-20.902-12.894-45.442-15.542-69.096-7.456-25.167 8.604-48.021 28.638-66.11 57.963-17.541 28.932-24.741 57.563-20.824 82.796 3.597 23.168 16.611 42.733 36.646 55.092 20.567 12.687 44.578 15.408 67.605 7.664 25.135-8.454 48.285-28.915 66.949-59.173 17.492-28.355 25.25-56.007 22.436-79.965-2.795-23.786-15.799-43.469-37.606-56.921zm-4.479 64.505c-1.195 14.3-7.978 31.831-19.617 50.698-12.021 19.489-43.432 62.689-75.383 42.98-7.377-4.55-12.171-11.427-14.249-20.438-4.029-17.463 2.453-41.352 17.803-65.582 19.76-32.034 50.788-57.518 75.561-42.237 11.848 7.308 17.192 18.943 15.885 34.579zm82.127-187.297-25.74-15.877a3.767 3.767 0 0 0-3.791-.097l-366.112 200.57a3.769 3.769 0 0 0-.167 6.514l25.739 15.877a3.77 3.77 0 0 0 3.791.097l366.113-200.57c1.176-.646 1.922-1.867 1.957-3.209s-.647-2.601-1.79-3.305z"
  ></path>
  <path
    d="m1553.885 849.633-268.082-281.914-1.727 1.642a61.514 61.514 0 0 0-13.896-15.903c-8.493-6.856-18.696-11.303-29.414-12.945 3.099-43.796.756-84.24-6.785-115.233-12.391-50.918-35.39-65.555-52.502-68.868-10.622-2.056-27.431-1.202-47.177 14.556-13.259 10.58-26.252 26.468-38.619 47.223-24.393 40.938-44.404 97.458-56.346 159.15a670.678 670.678 0 0 0-1.475 7.905l-199.178 48.643c-29.768 7.269-65.916 33.251-82.293 59.151l-338.407 535.159c-18.741 29.635-9.876 68.993 19.76 87.734l488.469 308.883a63.258 63.258 0 0 0 33.858 9.801c10.54 0 20.645-2.535 29.603-7.201l530.645 16.975.435.008.479.002c36.225 0 65.822-29.337 66.083-65.619l4.523-633.164c.224-31.208-16.448-73.37-37.954-95.985zm-432.429-416.087c19.177-32.187 40-50.451 54.322-47.682 11.655 2.256 22.517 19.642 29.053 46.507 7.096 29.159 9.061 68.152 5.659 110.715l-140.584 34.333c11.393-56.151 29.617-107.065 51.55-143.873zm-161.384 1171.07a33.3 33.3 0 0 1-17.825-5.157l-488.468-308.883c-15.655-9.9-20.338-30.69-10.438-46.344l338.408-535.159c12.11-19.152 42.042-40.667 64.054-46.042l187.069-45.686c-5.521 42.682-6.283 83.261-2.133 117.855a100.513 100.513 0 0 0-9.471 12.66c-14.189 22.438-18.791 49.059-12.958 74.958s21.403 47.977 43.841 62.166c15.929 10.073 34.27 15.397 53.039 15.397 34.324 0 65.758-17.301 84.086-46.281 29.29-46.321 15.435-107.834-30.885-137.123-15.929-10.073-34.27-15.397-53.041-15.397-16.591 0-32.5 4.053-46.586 11.502-1.842-28.993-.496-63.882 5.445-103.39l159.518-38.957a32.782 32.782 0 0 1 7.767-.945c13.682 0 25.397 8.527 29.829 21.207l-.883.84 1.671 1.757c.143.548.276 1.101.392 1.661l78.633 381c4.581 22.19-2.024 58.456-14.135 77.608l-338.408 535.159c-6.176 9.765-16.837 15.594-28.521 15.594zm203.848-766.549c-12.797 20.235-34.752 32.315-58.73 32.315-13.085 0-25.881-3.718-37.005-10.752-15.665-9.906-26.535-25.32-30.608-43.402-2.861-12.705-2.111-25.654 2.016-37.669 3.041 9.721 6.658 18.305 10.833 25.684 12.438 21.987 27.712 29.054 38.335 31.11 2.928.567 5.865.848 8.817.848 24.729 0 50.161-19.778 73.541-57.003 6.279 19.039 4.327 40.639-7.199 58.869zm-69.458-32.168c-13.248-2.564-25.455-23.906-31.833-59.704 12.001-9.367 26.921-14.614 42.721-14.614 13.086 0 25.883 3.718 37.007 10.753a69.424 69.424 0 0 1 10.73 8.365c-20.414 36.808-42.941 58.24-58.625 55.2zm457.856 772.632c-.123 17.069-14.046 30.871-31.088 30.869h-.034l-499.884-15.991 305.292-482.79a31.927 31.927 0 0 0 9.389-13.508l1.144-3.148 15.219-24.066c16.378-25.9 24.355-69.696 18.161-99.706l-69.22-335.387 227.225 238.948c15.244 16.03 28.479 49.496 28.32 71.617l-4.524 633.162z"
  ></path>
</svg>
