<svg xmlns="http://www.w3.org/2000/svg" enable-background="new 0 0 512 512" viewBox="0 0 512 512" id="open">
  <path fill="#fddc8d" d="M490.592,271.4v215.643c0,11.027-8.939,19.965-19.965,19.965H41.373c-11.027,0-19.965-8.939-19.965-19.965V271.4c0-11.027,8.939-19.965,19.965-19.965h429.253C481.653,251.435,490.592,260.373,490.592,271.4z"></path>
  <path fill="#fff" d="M71.771,507.014H41.373c-11.031,0-19.965-8.935-19.965-19.965V271.423c0-11.031,8.934-19.965,19.965-19.965h30.397c-11.031,0-19.965,8.935-19.965,19.965v215.625C51.805,498.079,60.74,507.014,71.771,507.014z" opacity=".5"></path>
  <path d="M490.592,271.423v215.625c0,11.031-8.934,19.965-19.965,19.965h-36.037c11.031,0,19.965-8.935,19.965-19.965V271.423c0-11.031-8.935-19.965-19.965-19.965h36.037C481.658,251.458,490.592,260.392,490.592,271.423z" opacity=".15"></path>
  <rect width="389.323" height="175.715" x="61.339" y="291.363" fill="#efefef"></rect>
  <circle cx="256" cy="41.019" r="36.027" fill="#a7b1b3"></circle>
  <circle cx="256" cy="41.019" r="12.584" fill="#efefef"></circle>
  <path d="M470.627,246.441h-51.552L284.645,70.321c7.622-7.452,12.373-17.828,12.373-29.304C297.018,18.401,278.617,0,256,0s-41.018,18.401-41.018,41.018c0,11.475,4.751,21.852,12.372,29.303L92.926,246.441H41.373c-13.76,0-24.957,11.196-24.957,24.957v215.645c0,13.76,11.196,24.957,24.957,24.957h429.253c13.76,0,24.957-11.196,24.957-24.957V271.398C495.583,257.638,484.387,246.441,470.627,246.441z M224.965,41.018c0-17.114,13.921-31.035,31.035-31.035s31.035,13.921,31.035,31.035S273.114,72.052,256,72.052S224.965,58.131,224.965,41.018z M235.298,76.367c6.086,3.578,13.146,5.668,20.702,5.668c7.556,0,14.616-2.089,20.702-5.668l129.803,170.059h-301.01L235.298,76.367z M485.601,487.043c0,8.257-6.717,14.974-14.974,14.974H41.373c-8.257,0-14.974-6.717-14.974-14.974V271.398c0-8.257,6.717-14.974,14.974-14.974h429.253c8.257,0,14.974,6.717,14.974,14.974V487.043z"></path>
  <path d="M450.661 286.372H61.339c-2.759 0-4.991 2.232-4.991 4.991v175.715c0 2.759 2.232 4.991 4.991 4.991h389.323c2.759 0 4.991-2.232 4.991-4.991V291.363C455.653 288.604 453.42 286.372 450.661 286.372zM445.67 462.087H66.33V296.355h379.34V462.087zM256 58.594c9.69 0 17.577-7.887 17.577-17.577S265.69 23.441 256 23.441c-9.69 0-17.577 7.887-17.577 17.577S246.31 58.594 256 58.594zM256 33.423c4.187 0 7.594 3.407 7.594 7.594s-3.407 7.594-7.594 7.594c-4.187 0-7.594-3.407-7.594-7.594S251.813 33.423 256 33.423z"></path>
  <path d="M136.974 426.733c21.247 0 38.536-21.32 38.536-47.53 0-26.19-17.289-47.495-38.536-47.495-21.233 0-38.507 21.306-38.507 47.495C98.466 405.413 115.741 426.733 136.974 426.733zM136.974 341.691c15.744 0 28.554 16.826 28.554 37.513 0 20.701-12.81 37.547-28.554 37.547-15.729 0-28.525-16.846-28.525-37.547C108.449 358.517 121.244 341.691 136.974 341.691zM199.458 426.733c2.759 0 4.991-2.232 4.991-4.991v-37.527h21.233c14.218 0 25.785-11.776 25.785-26.253s-11.567-26.253-25.785-26.253h-26.224c-2.759 0-4.991 2.232-4.991 4.991 0 29.743 0 55.3 0 85.043C194.466 424.501 196.699 426.733 199.458 426.733zM241.484 357.961c0 8.974-7.087 16.271-15.803 16.271h-21.233v-32.541h21.233C234.397 341.691 241.484 348.988 241.484 357.961zM272.066 426.733h44.503c2.759 0 4.991-2.232 4.991-4.991 0-2.759-2.233-4.991-4.991-4.991h-39.511v-32.536h39.511c2.759 0 4.991-2.232 4.991-4.991 0-2.759-2.233-4.991-4.991-4.991h-39.511v-32.541h39.511c2.759 0 4.991-2.232 4.991-4.991s-2.233-4.991-4.991-4.991h-44.503c-2.759 0-4.991 2.232-4.991 4.991v85.043C267.074 424.501 269.307 426.733 272.066 426.733zM342.159 426.733c2.759 0 4.991-2.232 4.991-4.991v-70.536l57.459 73.607c1.344 1.724 3.608 2.327 5.557 1.648 2.018-.692 3.368-2.588 3.368-4.718v-85.043c0-2.759-2.232-4.991-4.991-4.991s-4.991 2.232-4.991 4.991v70.536l-57.459-73.607c-1.316-1.682-3.553-2.354-5.557-1.648-2.018.692-3.368 2.588-3.368 4.718v85.043C337.167 424.501 339.4 426.733 342.159 426.733z"></path>
</svg>
